<svg version="1.0" xmlns="http://www.w3.org/2000/svg"
 width="32.000000pt" height="32.000000pt" viewBox="0 0 32.000000 32.000000"
 preserveAspectRatio="xMidYMid meet">

<g transform="translate(0.000000,32.000000) scale(0.100000,-0.100000)"
fill="#0b6e11" stroke="none">
<path d="M90 298 c-33 -17 -51 -35 -67 -68 -29 -56 -29 -84 -1 -140 25 -48 89
-90 138 -90 49 0 113 42 138 90 28 56 28 84 0 140 -25 48 -89 90 -138 90 -14
0 -46 -10 -70 -22z m89 -42 c9 -10 8 -16 -4 -26 -19 -16 -41 1 -32 24 8 20 21
20 36 2z m1 -68 c0 -12 -12 -34 -26 -49 -14 -15 -23 -32 -20 -38 11 -18 45
-12 56 9 14 26 40 26 40 1 0 -44 -66 -74 -109 -50 -39 22 -39 61 1 109 37 44
58 51 58 18z"/>
</g>
</svg>
