<?xml version="1.0" standalone="no"?>
<!DOCTYPE svg PUBLIC "-//W3C//DTD SVG 20010904//EN"
 "http://www.w3.org/TR/2001/REC-SVG-20010904/DTD/svg10.dtd">
<svg version="1.0" xmlns="http://www.w3.org/2000/svg"
 width="1000.000000pt" height="1000.000000pt" viewBox="0 0 1000.000000 1000.000000"
 preserveAspectRatio="xMidYMid meet">
<metadata>
Created by potrace 1.14, written by Peter Selinger 2001-2017
</metadata>
<g transform="translate(0.000000,1000.000000) scale(0.100000,-0.100000)"
fill="#000000" stroke="none">
<path d="M4680 9989 c-1553 -101 -2972 -921 -3840 -2219 -487 -729 -772 -1579
-830 -2475 -40 -633 52 -1304 266 -1925 418 -1219 1304 -2236 2459 -2825 785
-400 1695 -590 2560 -535 1361 87 2602 701 3487 1723 717 829 1137 1862 1208
2972 40 633 -52 1304 -266 1925 -353 1028 -1042 1920 -1954 2530 -902 602
-2008 899 -3090 829z m554 -1689 c171 -43 343 -175 411 -313 54 -112 69 -183
69 -327 0 -108 -4 -135 -26 -200 -40 -115 -74 -168 -167 -260 -138 -137 -268
-190 -471 -190 -122 0 -206 18 -293 61 -244 121 -382 363 -364 639 13 190 64
306 187 424 83 79 195 143 300 170 83 22 261 20 354 -4z m60 -1723 c167 -62
272 -178 323 -358 14 -52 18 -98 17 -244 -2 -287 -41 -460 -154 -690 -132
-270 -279 -436 -780 -880 -495 -439 -613 -581 -671 -815 -18 -72 -21 -102 -16
-200 9 -163 41 -265 124 -394 92 -143 259 -274 427 -334 259 -94 639 -80 878
31 151 71 263 183 385 389 75 127 135 261 203 455 65 186 107 266 181 347 115
125 219 169 399 169 94 0 127 -4 180 -22 95 -33 169 -82 242 -159 121 -129
158 -222 158 -398 0 -382 -205 -822 -535 -1149 -362 -359 -833 -577 -1385
-640 -198 -23 -586 -16 -778 14 -915 142 -1564 720 -1681 1498 -14 93 -14 349
0 449 36 260 153 510 355 760 104 129 231 249 885 841 206 186 309 305 377
434 51 94 72 162 122 382 23 98 50 203 61 233 51 134 158 243 281 283 90 29
101 30 223 26 87 -2 124 -8 179 -28z"/>
</g>
</svg>
